<svg xmlns="http://www.w3.org/2000/svg" xmlns:xlink="http://www.w3.org/1999/xlink" version="1.1" viewBox="0 0 193 193"><title>icon_play</title><g id="music" fill="none" fill-rule="evenodd" stroke="none" stroke-width="1"><g id="music1" transform="translate(-790.000000, -2628.000000)"><g id="icon_play" transform="translate(790.000000, 2628.000000)"><circle id="椭圆形" cx="96.5" cy="96.5" r="96.5" fill="#123430" opacity=".602" transform="translate(96.500000, 96.500000) scale(-1, 1) translate(-96.500000, -96.500000)"/><path fill="#FFF" fill-rule="nonzero" d="M111.384451,74.241922 L132.867221,111.345063 C135.209728,115.390834 133.802251,120.554216 129.723534,122.8778 C128.432856,123.61308 126.970447,124 125.48205,124 L82.51651,124 C77.8129714,124 74,120.217829 74,115.552285 C74,114.07591 74.3900708,112.625315 75.1313384,111.345063 L96.6141086,74.241922 C98.956615,70.1961514 104.162046,68.8000437 108.240764,71.1236282 C109.548516,71.868635 110.633378,72.9447336 111.384451,74.241922 Z" transform="translate(104.000000, 97.000000) rotate(90.000000) translate(-104.000000, -97.000000)"/></g></g></g></svg>